<svg width="251" height="50" viewBox="0 0 251 50" fill="none" xmlns="http://www.w3.org/2000/svg">
<path d="M57.3351 29.9339C55.3436 28.961 49.0203 25.5708 43.9014 22.4206C38.3296 18.9918 30.0434 14.7058 30.0434 14.7058L27.7575 13.7057C22.2014 10.9284 17.3811 10.5998 15.7896 10.567C15.6624 10.5641 15.5553 10.5627 15.471 10.5627C14.1666 10.5627 10.3235 10.9941 7.6205 12.2442C10.4964 10.7127 16.4082 7.49533 19.3827 5.62235C23.2401 3.19363 29.0976 0.0505676 34.5265 0.0505676C36.8424 0.0505676 39.3954 0.523455 41.5855 1.09206C43.7414 1.6521 45.833 2.43501 47.8345 3.4165C52.1419 5.52949 59.2324 8.75541 62.9569 9.55118C66.7972 10.3698 69.8731 12.1685 71.2589 13.2186C71.4403 13.3557 71.606 13.5143 71.7489 13.69L71.7432 13.6943C75.0163 19.2247 63.6498 26.7437 57.3351 29.9339Z" fill="#FEFEFE"/>
<path d="M18.0084 37.4525C17.8784 37.4253 17.8113 37.4096 17.8113 37.4096C17.7241 37.3896 17.6298 37.3682 17.5312 37.3453C15.8597 36.961 12.6795 36.2238 11.438 35.7924C9.43787 34.5323 7.00343 32.8522 4.72614 30.8878C3.21319 29.5834 1.95311 28.0047 1.07876 26.2075C0.340145 24.6874 -0.112741 23.0658 0.0244108 20.2657C0.19585 16.7797 4.9533 13.5738 7.31059 12.408C7.40917 12.3552 7.51346 12.3009 7.62061 12.2437C10.3236 10.9936 14.1667 10.5622 15.4711 10.5622C15.5554 10.5622 15.6626 10.5636 15.7897 10.5665C15.3625 11.1494 13.8182 13.3738 13.3281 15.7054C12.7567 18.4198 12.3281 19.5628 12.4709 21.9915C12.6138 24.4202 12.6138 30.8492 17.6141 36.9925L18.0084 37.4525Z" fill="#FEFEFE"/>
<path d="M76.029 39.4815C75.5061 41.3388 71.6002 45.7677 60.1709 48.625C52.599 50.518 44.9628 50.1322 39.4053 49.2136C35.9593 48.6435 32.622 47.5478 29.4918 45.9977C26.5373 44.5333 23.1399 42.8046 22.097 42.1246C20.2397 40.9102 16.9538 38.9101 15.4537 38.1243C14.8322 37.7986 13.3279 36.9828 11.4377 35.7927C12.6793 36.2242 15.8595 36.9614 17.531 37.3457C17.6296 37.3685 17.7239 37.39 17.811 37.41C17.811 37.41 17.8782 37.4257 18.0082 37.4543C19.9326 37.8571 35.7736 40.7002 57.0993 30.0524C57.1764 30.0138 57.255 29.9738 57.335 29.9338C63.6497 26.7436 75.0161 19.2245 71.7431 13.6942L71.7488 13.6899C71.8388 13.7999 71.9202 13.9156 71.9916 14.0385C72.2102 14.4114 72.4531 14.8957 72.6003 15.3371C72.8288 16.0229 74.9818 31.7182 76.029 39.4815Z" fill="#FEFEFE"/>
<path d="M96.6246 35.7143V17.4881H100.322L106.154 29.257L111.935 17.4881H115.658V35.7143H112.533V22.8518L107.378 33.1626H104.931L99.7491 22.8779V35.7143H96.6246ZM123.548 36.0267C122.299 36.0267 121.17 35.7403 120.164 35.1675C119.174 34.5773 118.393 33.7702 117.82 32.746C117.265 31.7045 116.987 30.5155 116.987 29.1789C116.987 27.8076 117.273 26.6099 117.846 25.5858C118.419 24.5443 119.2 23.7371 120.19 23.1643C121.196 22.5741 122.325 22.279 123.574 22.279C124.824 22.279 125.944 22.5741 126.933 23.1643C127.94 23.7371 128.721 24.5356 129.277 25.5597C129.849 26.5839 130.136 27.7816 130.136 29.1529C130.136 30.5242 129.849 31.7219 129.277 32.746C128.704 33.7702 127.914 34.5773 126.907 35.1675C125.918 35.7403 124.798 36.0267 123.548 36.0267ZM123.548 33.3449C124.173 33.3449 124.737 33.1887 125.241 32.8762C125.762 32.5638 126.178 32.0951 126.491 31.4702C126.803 30.8453 126.959 30.0729 126.959 29.1529C126.959 28.2329 126.803 27.4691 126.491 26.8616C126.196 26.2367 125.788 25.768 125.267 25.4556C124.764 25.1431 124.199 24.9869 123.574 24.9869C122.967 24.9869 122.403 25.1431 121.882 25.4556C121.361 25.768 120.945 26.2367 120.632 26.8616C120.32 27.4691 120.164 28.2329 120.164 29.1529C120.164 30.0729 120.32 30.8453 120.632 31.4702C120.945 32.0951 121.353 32.5638 121.856 32.8762C122.377 33.1887 122.941 33.3449 123.548 33.3449ZM138.871 36.0267C138.176 36.0267 137.551 35.9313 136.996 35.7403C136.44 35.5667 135.954 35.3237 135.538 35.0113C135.121 34.6815 134.774 34.3083 134.496 33.8917L134.158 35.7143H131.372V16.9674H134.496V24.5182C134.913 23.876 135.477 23.3466 136.189 22.93C136.9 22.496 137.786 22.279 138.845 22.279C140.077 22.279 141.162 22.5828 142.099 23.1903C143.054 23.7805 143.8 24.5963 144.338 25.6378C144.894 26.662 145.172 27.8423 145.172 29.1789C145.172 30.4808 144.903 31.6525 144.364 32.694C143.826 33.7355 143.08 34.5513 142.125 35.1415C141.188 35.7316 140.103 36.0267 138.871 36.0267ZM138.22 33.3189C138.949 33.3189 139.6 33.1453 140.172 32.7981C140.745 32.4336 141.188 31.9476 141.5 31.34C141.83 30.7151 141.995 29.9861 141.995 29.1529C141.995 28.337 141.83 27.6167 141.5 26.9918C141.188 26.3669 140.745 25.8809 140.172 25.5337C139.6 25.1865 138.949 25.0129 138.22 25.0129C137.473 25.0129 136.814 25.1865 136.241 25.5337C135.685 25.8809 135.243 26.3669 134.913 26.9918C134.6 27.6167 134.444 28.337 134.444 29.1529C134.444 29.9861 134.6 30.7151 134.913 31.34C135.243 31.9476 135.685 32.4336 136.241 32.7981C136.814 33.1453 137.473 33.3189 138.22 33.3189ZM151.251 36.0267C150.192 36.0267 149.281 35.8184 148.517 35.4018C147.771 34.9679 147.198 34.3256 146.799 33.4751C146.399 32.6072 146.2 31.5396 146.2 30.2725V22.5915H149.324V29.96C149.324 31.0883 149.559 31.9476 150.027 32.5377C150.513 33.1106 151.242 33.397 152.214 33.397C152.839 33.397 153.395 33.2494 153.881 32.9543C154.384 32.6592 154.775 32.234 155.052 31.6785C155.347 31.1057 155.495 30.4114 155.495 29.5955V22.5915H158.62V35.7143H155.86L155.625 33.5272C155.226 34.2909 154.644 34.8985 153.881 35.3498C153.134 35.8011 152.258 36.0267 151.251 36.0267ZM160.403 35.7143V22.5915H163.528V35.7143H160.403ZM161.966 20.5085C161.393 20.5085 160.916 20.3349 160.534 19.9877C160.169 19.6232 159.987 19.1806 159.987 18.6598C159.987 18.1217 160.169 17.6878 160.534 17.358C160.916 17.0108 161.393 16.8372 161.966 16.8372C162.539 16.8372 163.007 17.0108 163.372 17.358C163.754 17.6878 163.945 18.1217 163.945 18.6598C163.945 19.1806 163.754 19.6232 163.372 19.9877C163.007 20.3349 162.539 20.5085 161.966 20.5085ZM170.549 36.0267C169.386 36.0267 168.371 35.8445 167.503 35.48C166.653 35.0981 165.976 34.5773 165.472 33.9177C164.986 33.2407 164.7 32.4683 164.613 31.6004H167.737C167.824 31.9649 167.98 32.3034 168.206 32.6158C168.432 32.9109 168.736 33.1453 169.117 33.3189C169.517 33.4924 169.985 33.5792 170.523 33.5792C171.044 33.5792 171.469 33.5098 171.799 33.3709C172.129 33.2147 172.372 33.0151 172.528 32.7721C172.685 32.5291 172.763 32.2687 172.763 31.991C172.763 31.5744 172.65 31.2532 172.424 31.0276C172.199 30.8019 171.869 30.6283 171.435 30.5068C171.018 30.368 170.515 30.2378 169.925 30.1163C169.3 29.9948 168.692 29.8472 168.102 29.6736C167.529 29.4827 167.008 29.2483 166.54 28.9706C166.088 28.6929 165.724 28.337 165.446 27.9031C165.186 27.4691 165.056 26.9397 165.056 26.3148C165.056 25.551 165.255 24.8654 165.654 24.2579C166.071 23.6503 166.661 23.173 167.425 22.8258C168.206 22.4613 169.135 22.279 170.211 22.279C171.739 22.279 172.954 22.6349 173.856 23.3466C174.776 24.0409 175.314 25.0216 175.471 26.2888H172.502C172.416 25.8027 172.172 25.4295 171.773 25.1692C171.374 24.8914 170.845 24.7526 170.185 24.7526C169.508 24.7526 168.987 24.8828 168.623 25.1431C168.276 25.3861 168.102 25.7159 168.102 26.1325C168.102 26.3929 168.206 26.6359 168.414 26.8616C168.64 27.0699 168.961 27.2522 169.378 27.4084C169.794 27.5472 170.306 27.6861 170.914 27.825C171.886 28.0159 172.745 28.2416 173.492 28.5019C174.238 28.7623 174.828 29.1442 175.262 29.6476C175.696 30.151 175.913 30.8627 175.913 31.7827C175.931 32.6158 175.714 33.3536 175.262 33.9958C174.828 34.6381 174.212 35.1415 173.414 35.506C172.615 35.8532 171.66 36.0267 170.549 36.0267ZM177.226 35.7143V17.4881H188.995V20.0138H180.351V25.2473H188.214V27.7208H180.351V33.1887H188.995V35.7143H177.226ZM190.353 35.7143V22.5915H193.112L193.347 24.7786C193.746 24.0148 194.319 23.4073 195.065 22.956C195.812 22.5047 196.697 22.279 197.721 22.279C198.78 22.279 199.683 22.5047 200.429 22.956C201.175 23.3899 201.748 24.0322 202.147 24.8828C202.564 25.7333 202.772 26.7922 202.772 28.0593V35.7143H199.648V28.3457C199.648 27.2522 199.405 26.4103 198.919 25.8201C198.433 25.2299 197.712 24.9348 196.758 24.9348C196.133 24.9348 195.569 25.0824 195.065 25.3775C194.579 25.6726 194.189 26.1065 193.894 26.6793C193.616 27.2348 193.477 27.9118 193.477 28.7102V35.7143H190.353ZM209.764 41.755C208.531 41.755 207.446 41.5987 206.509 41.2863C205.589 40.9912 204.869 40.5312 204.348 39.9063C203.845 39.2988 203.593 38.535 203.593 37.615C203.593 37.0769 203.723 36.5475 203.983 36.0267C204.261 35.5234 204.669 35.0547 205.207 34.6207C205.763 34.1694 206.466 33.7788 207.316 33.449L208.696 34.9592C207.863 35.2543 207.282 35.6101 206.952 36.0267C206.622 36.4433 206.457 36.8686 206.457 37.3026C206.457 37.7539 206.596 38.1271 206.874 38.4222C207.169 38.7346 207.559 38.969 208.045 39.1252C208.549 39.2814 209.113 39.3595 209.738 39.3595C210.345 39.3595 210.875 39.2727 211.326 39.0991C211.777 38.9429 212.124 38.7173 212.367 38.4222C212.628 38.1271 212.758 37.7712 212.758 37.3546C212.758 36.8339 212.576 36.4086 212.211 36.0788C211.847 35.7664 211.126 35.5754 210.05 35.506C209.13 35.4366 208.323 35.3411 207.629 35.2196C206.934 35.0807 206.336 34.9245 205.832 34.7509C205.346 34.5773 204.929 34.3864 204.582 34.1781C204.235 33.9524 203.949 33.7268 203.723 33.5011V32.9023L206.457 30.0381L208.774 30.7932L205.702 33.7875L206.509 32.2774C206.683 32.3989 206.856 32.5117 207.03 32.6158C207.221 32.72 207.455 32.8155 207.733 32.9023C208.028 32.9717 208.41 33.0411 208.878 33.1106C209.347 33.18 209.955 33.2494 210.701 33.3189C211.864 33.4056 212.81 33.6139 213.539 33.9438C214.268 34.2736 214.806 34.7162 215.153 35.2717C215.501 35.8271 215.674 36.4954 215.674 37.2765C215.674 38.0403 215.457 38.7607 215.023 39.4376C214.607 40.1146 213.964 40.6701 213.097 41.104C212.229 41.538 211.118 41.755 209.764 41.755ZM209.764 31.7827C208.67 31.7827 207.724 31.5744 206.926 31.1578C206.145 30.7238 205.546 30.151 205.129 29.4393C204.713 28.7102 204.504 27.9118 204.504 27.0439C204.504 26.1586 204.713 25.3601 205.129 24.6484C205.546 23.9367 206.145 23.3639 206.926 22.93C207.724 22.496 208.67 22.279 209.764 22.279C210.857 22.279 211.795 22.496 212.576 22.93C213.357 23.3639 213.956 23.9367 214.372 24.6484C214.789 25.3601 214.997 26.1586 214.997 27.0439C214.997 27.9118 214.789 28.7102 214.372 29.4393C213.956 30.151 213.357 30.7238 212.576 31.1578C211.795 31.5744 210.857 31.7827 209.764 31.7827ZM209.764 29.3612C210.51 29.3612 211.109 29.1616 211.56 28.7623C212.012 28.3631 212.237 27.7903 212.237 27.0439C212.237 26.2975 212.012 25.7333 211.56 25.3514C211.109 24.9522 210.51 24.7526 209.764 24.7526C209.017 24.7526 208.41 24.9522 207.941 25.3514C207.472 25.7333 207.238 26.2975 207.238 27.0439C207.238 27.7903 207.472 28.3631 207.941 28.7623C208.41 29.1616 209.017 29.3612 209.764 29.3612ZM211.925 24.8828L211.326 22.5915H216.716V24.5443L211.925 24.8828ZM217.782 35.7143V22.5915H220.907V35.7143H217.782ZM219.344 20.5085C218.772 20.5085 218.294 20.3349 217.912 19.9877C217.548 19.6232 217.366 19.1806 217.366 18.6598C217.366 18.1217 217.548 17.6878 217.912 17.358C218.294 17.0108 218.772 16.8372 219.344 16.8372C219.917 16.8372 220.386 17.0108 220.751 17.358C221.132 17.6878 221.323 18.1217 221.323 18.6598C221.323 19.1806 221.132 19.6232 220.751 19.9877C220.386 20.3349 219.917 20.5085 219.344 20.5085ZM222.695 35.7143V22.5915H225.455L225.689 24.7786C226.088 24.0148 226.661 23.4073 227.408 22.956C228.154 22.5047 229.039 22.279 230.063 22.279C231.122 22.279 232.025 22.5047 232.771 22.956C233.518 23.3899 234.09 24.0322 234.49 24.8828C234.906 25.7333 235.115 26.7922 235.115 28.0593V35.7143H231.99V28.3457C231.99 27.2522 231.747 26.4103 231.261 25.8201C230.775 25.2299 230.055 24.9348 229.1 24.9348C228.475 24.9348 227.911 25.0824 227.408 25.3775C226.921 25.6726 226.531 26.1065 226.236 26.6793C225.958 27.2348 225.819 27.9118 225.819 28.7102V35.7143H222.695ZM242.731 36.0267C241.429 36.0267 240.283 35.749 239.294 35.1935C238.305 34.6207 237.532 33.8222 236.977 32.7981C236.421 31.774 236.143 30.5936 236.143 29.257C236.143 27.8684 236.413 26.6533 236.951 25.6118C237.506 24.5703 238.279 23.7545 239.268 23.1643C240.275 22.5741 241.438 22.279 242.757 22.279C244.041 22.279 245.161 22.5654 246.116 23.1383C247.07 23.7111 247.808 24.4835 248.329 25.4556C248.85 26.4103 249.11 27.4865 249.11 28.6842C249.11 28.8578 249.11 29.0487 249.11 29.257C249.11 29.4653 249.093 29.6823 249.058 29.908H238.383V27.9031H245.96C245.925 26.9484 245.604 26.202 244.996 25.6639C244.389 25.1084 243.634 24.8307 242.731 24.8307C242.089 24.8307 241.498 24.9782 240.96 25.2733C240.422 25.5684 239.997 26.011 239.685 26.6012C239.372 27.174 239.216 27.9031 239.216 28.7884V29.5434C239.216 30.3593 239.363 31.0623 239.659 31.6525C239.971 32.2426 240.388 32.694 240.908 33.0064C241.446 33.3015 242.045 33.449 242.705 33.449C243.434 33.449 244.033 33.2928 244.501 32.9804C244.987 32.6679 245.343 32.2513 245.569 31.7306H248.746C248.503 32.5464 248.103 33.2841 247.548 33.9438C246.992 34.586 246.307 35.0981 245.491 35.48C244.675 35.8445 243.755 36.0267 242.731 36.0267Z" fill="#FEFEFE"/>
</svg>
